<svg xmlns="http://www.w3.org/2000/svg" viewBox="0 0 826.76 229.88"><path d="M9.86,142.87h4.2l.88.88a132.11,132.11,0,0,0,1,14.06q3,4.59,10.45,7.47A40.26,40.26,0,0,0,41,168.16q10.35,0,16.55-5.56a17.28,17.28,0,0,0,6.2-13.28A12,12,0,0,0,61.52,142,16.37,16.37,0,0,0,54.74,137q-4.55-2-16.26-4.73-10.06-2.35-14.07-3.67a23,23,0,0,1-7.71-4.44A20.34,20.34,0,0,1,11,116.46a26.37,26.37,0,0,1,8.44-31q10.41-7.86,25.93-7.86a63.14,63.14,0,0,1,14.26,1.8,80.61,80.61,0,0,1,11.72,3.47l.88,1.37q-.8,3.9-1,20.51l-.88.87H66.5l-.88-.87a45.09,45.09,0,0,0-1.07-8.35A12.69,12.69,0,0,0,61,91.26a22.22,22.22,0,0,0-8-4.69,31.43,31.43,0,0,0-10.94-1.9,25,25,0,0,0-10,1.76,15.15,15.15,0,0,0-6.54,5.32,14.72,14.72,0,0,0-2.49,8.64A14.21,14.21,0,0,0,24.56,107a11.61,11.61,0,0,0,4.64,4.74,23.81,23.81,0,0,0,6.54,2.59l10.65,2.73q13.67,3.31,19.58,5.76a19.5,19.5,0,0,1,9.13,7.37,21.4,21.4,0,0,1,3.22,12q0,13.47-11.13,23.14T38.57,175a106.71,106.71,0,0,1-15.28-1.37,158.3,158.3,0,0,1-15.58-3l-.48-1.27,1-6.55a47.72,47.72,0,0,0,.59-6.1q.09-3.08.19-12.94Z"/><path d="M89.26,94.92V92.38l.68-1a139.55,139.55,0,0,0,14.85-6.35q0-25.49-.59-29.69a84,84,0,0,0,16.5-7.52l2.35,1.95q-1,6.16-2.35,35.75c3.26.06,6.77.09,10.55.09a161,161,0,0,0,16.5-.58l.69.68L146.58,94l-.78.87q-5-.09-11-.09-5.47,0-14.07.09l-.58,39.75q0,13.77.63,18a10.24,10.24,0,0,0,3.52,6.64q2.88,2.39,8.54,2.39a22.71,22.71,0,0,0,12.11-3.42l2.35,3.52q-2.36,1.67-11.23,9.76a24.4,24.4,0,0,1-10.36,2.35q-22,0-22-21.29,0-7.81.39-13.28c.07-1.11.1-2.25.1-3.42V95.31h-4c-2.93,0-6.29.13-10.06.39Z"/><path d="M156.64,126.86a54.77,54.77,0,0,1,4.79-22.42q4.78-10.78,16.65-18.65t28.17-7.86q20.5,0,33.4,12.94t12.89,33.25q0,22.37-14.8,36.82a49.23,49.23,0,0,1-35.69,14.45A42.15,42.15,0,0,1,177.64,168a45.94,45.94,0,0,1-15.87-18A52.61,52.61,0,0,1,156.64,126.86Zm18.46-6.74a78.93,78.93,0,0,0,3.51,24.46,37.65,37.65,0,0,0,11.14,17.33,25.87,25.87,0,0,0,17.38,6.55,23.64,23.64,0,0,0,19-9.13q7.52-9.14,7.52-27.49,0-20.81-8.15-34.09T202.05,84.47q-12.69,0-19.82,9.18T175.1,120.12Z"/><path d="M296.68,78.52l1.86,1.27q-.6,5.65-.88,20.11L305,90.62a58.08,58.08,0,0,1,6.4-7.08,19.92,19.92,0,0,1,6.49-3.85,21.88,21.88,0,0,1,7.62-1.37,19.13,19.13,0,0,1,8.1,1.76l.69,1.37q-1.56,13-1.76,22.85h-4.4q-3.9-9-12.59-9A15.68,15.68,0,0,0,305,99.17a18.69,18.69,0,0,0-6,9.67,59.55,59.55,0,0,0-1.51,14.7v10.84q0,2.93.39,14.35t.83,13.18a4.37,4.37,0,0,0,3.81,3.71q1.51.3,13.92,1l.88.78v4.1l-.88.88q-13-.78-27.15-.78-11.24,0-23.44.78l-.88-.88v-4.1l.88-.78c6.31-.39,9.88-.68,10.69-.88a4.4,4.4,0,0,0,2.15-1.22,5.22,5.22,0,0,0,1.27-2.83q.35-1.9.78-12.6t.44-16.16V113.67q0-3.9-.39-10.64t-.63-8.3a3.07,3.07,0,0,0-1.52-2.3c-.84-.49-2.54-.73-5.07-.73l-8.21-.1-.88-.78v-4.2l.78-.78Q283.89,83.59,296.68,78.52Z"/><path d="M358.89,105.37l-3.81-1-.78-1V91.31q17.37-12.9,33.79-12.89,11.22,0,18.65,4.2a26.27,26.27,0,0,1,10.74,10.5,31.06,31.06,0,0,1,3.32,14.69l-.49,19.63v29.1q0,6,.83,7.23a4.21,4.21,0,0,0,1.91,1.71,16.39,16.39,0,0,0,4,.73l5.57.49.78.88v3.9l-.78.79q-7.14-.59-13.28-.59-5.86,0-14.07.59l-1.46-1.37.39-15.72-21.29,16.6A30.21,30.21,0,0,1,371.19,174a29.51,29.51,0,0,1-13.43-2.83,20.28,20.28,0,0,1-8.59-7.91,23.87,23.87,0,0,1-3-12.3q0-14.35,9-22.42t49-13.72q0-14.45-6.45-20.36t-17.28-5.91a30.53,30.53,0,0,0-10.3,1.66c-3.1,1.11-4.87,2-5.33,2.69s-2.21,4.67-5.27,12ZM404.2,120.8q-27.34,4.59-34.08,9.86T363.38,147q0,15.24,15.14,15.24,13,0,25.68-15Z"/><path d="M545.9,85.25l.78,1.76q-4,6.15-5,8H523.53a24.34,24.34,0,0,1,2.74,11.23,30.64,30.64,0,0,1-3.17,13.48,32.45,32.45,0,0,1-8.84,11.13,46.59,46.59,0,0,1-12.84,7.32,45.59,45.59,0,0,1-16.36,2.74h-4.49q-5.77,4.59-7.43,6.83a7.71,7.71,0,0,0-1.66,4.59,6.15,6.15,0,0,0,4,6.06q4,1.75,16.36,1.76l21.87-.3q10.35,0,15.87,2.44a19,19,0,0,1,8.94,8.74,27.67,27.67,0,0,1,3.41,13.34q0,10.74-7,21.43t-20.16,16.26a71.61,71.61,0,0,1-28.13,5.57,66,66,0,0,1-16-1.86,41.26,41.26,0,0,1-13.08-5.61,28.44,28.44,0,0,1-9-9.82,25.36,25.36,0,0,1-3.41-12.6,28.59,28.59,0,0,1,1.07-7.56,30.28,30.28,0,0,1,4.1-8.55L468,171.78q-8.5-2.64-10.7-5.23a9.27,9.27,0,0,1-2.19-6.2,21,21,0,0,1,2.44-8.79l15.72-11.33q-13.86-3.6-18.7-10.84a27.87,27.87,0,0,1-4.83-15.82,34.75,34.75,0,0,1,3.41-15.08A27,27,0,0,1,463.43,87a61.55,61.55,0,0,1,15.43-6.79,56.09,56.09,0,0,1,15.57-2.49q12.21,0,23.25,7.91Q535.35,85.64,545.9,85.25Zm-50.78,88.19q-15.74,0-18.12.39c-1.59.26-3.86,1.37-6.79,3.32a22.23,22.23,0,0,0-7.17,8,22.84,22.84,0,0,0-2.79,11.28,22.45,22.45,0,0,0,8.21,18q8.21,6.93,21.87,6.93a42.11,42.11,0,0,0,18.95-4.3,29.15,29.15,0,0,0,12.84-11.52,27.86,27.86,0,0,0,4.15-13.87,18.75,18.75,0,0,0-3.47-11.38,14,14,0,0,0-9-5.76Q508.3,173.44,495.12,173.44ZM466.5,107.91a39.34,39.34,0,0,0,2.35,12.79,19.62,19.62,0,0,0,7.57,10.35,20.53,20.53,0,0,0,11.76,3.52,21.68,21.68,0,0,0,15-5.66q6.3-5.67,6.3-17.68A30.76,30.76,0,0,0,503.71,93q-5.76-8.1-16.31-8.11a20.59,20.59,0,0,0-14.89,5.81Q466.51,96.49,466.5,107.91Z"/><path d="M635.74,157.23l-3.12,7q-10.15,6.54-18.12,8.49a60,60,0,0,1-14.21,2,54.8,54.8,0,0,1-22.21-4.59q-10.5-4.59-17.09-15.53t-6.6-26.37a62.88,62.88,0,0,1,2.54-18.5q2.55-8.25,5.33-12.26t9.42-8.89a62.34,62.34,0,0,1,14.06-7.81,43.32,43.32,0,0,1,16-2.93,38.49,38.49,0,0,1,20.65,5.52A30.33,30.33,0,0,1,635,97.46a46.62,46.62,0,0,1,3.61,18.26,55.68,55.68,0,0,1-.29,5.86l-1.07,1.08a109.87,109.87,0,0,1-17.87,2q-11.24.49-14.85.49H573.14q.2,20.21,10.16,29.78a33.9,33.9,0,0,0,24.41,9.57,37.43,37.43,0,0,0,13.14-2.34,81.85,81.85,0,0,0,13.33-6.54Zm-62.6-39.94c1.18.19,5.68.42,13.53.68s13.65.39,17.43.39q13.57,0,16.5-.49c.07-1.56.1-2.77.1-3.61q0-15.14-6.15-22.51t-16.8-7.37q-11.61,0-18.11,8.3T573.14,117.29Z"/><path d="M670.21,150a11.42,11.42,0,0,1,8.16,3.32,11.7,11.7,0,0,1-8.16,20,11.38,11.38,0,0,1-8.3-3.37,11.14,11.14,0,0,1-3.41-8.25A11.66,11.66,0,0,1,670.21,150Z"/><path d="M694.34,86.62l.87-.78q18.56-2.25,31.45-7.32l1.76,1.27q-1.08,12.78-1.08,35.83v18l.3,31.16A157.2,157.2,0,0,1,725,194.53a46,46,0,0,1-11.82,23.39Q704,227.64,692,227.64c-.45,0-1.14,0-2-.1L689,222l.88-1.27c1.44.13,2.58.2,3.42.2a12.52,12.52,0,0,0,6.35-1.81,17.43,17.43,0,0,0,5.66-5.61,26.5,26.5,0,0,0,3.71-9.43q1.18-5.61,1.62-17.58t.43-16V113.67q0-3.9-.34-10.59c-.23-4.46-.44-7.25-.63-8.35a3.08,3.08,0,0,0-1.61-2.35,12.17,12.17,0,0,0-4.93-.68l-8.31-.1-.87-.78Zm24.51-51.76a10.93,10.93,0,0,1,10.93,11,11,11,0,0,1-10.93,10.94,11,11,0,0,1-11-10.94,11,11,0,0,1,11-11Z"/><path d="M751.85,142.87h4.2l.88.88a132.11,132.11,0,0,0,1,14.06q3,4.59,10.45,7.47A40.3,40.3,0,0,0,783,168.16q10.35,0,16.55-5.56a17.28,17.28,0,0,0,6.2-13.28,12.06,12.06,0,0,0-2.24-7.28,16.34,16.34,0,0,0-6.79-5.08q-4.54-2-16.26-4.73-10.07-2.35-14.06-3.67a23,23,0,0,1-7.72-4.44,20.44,20.44,0,0,1-5.66-7.66,26.37,26.37,0,0,1,8.44-31q10.41-7.86,25.93-7.86a63.07,63.07,0,0,1,14.26,1.8,80.61,80.61,0,0,1,11.72,3.47l.88,1.37q-.78,3.9-1,20.51l-.88.87h-3.9l-.88-.87a44.86,44.86,0,0,0-1.08-8.35A12.59,12.59,0,0,0,803,91.26a22.22,22.22,0,0,0-8-4.69,31.43,31.43,0,0,0-10.94-1.9,25,25,0,0,0-10,1.76,15.15,15.15,0,0,0-6.54,5.32,14.72,14.72,0,0,0-2.49,8.64,14.21,14.21,0,0,0,1.51,6.64,11.67,11.67,0,0,0,4.64,4.74,23.81,23.81,0,0,0,6.54,2.59l10.65,2.73Q802,120.41,808,122.85a19.5,19.5,0,0,1,9.13,7.37,21.4,21.4,0,0,1,3.22,12q0,13.47-11.13,23.14T780.57,175a106.71,106.71,0,0,1-15.29-1.37,157.46,157.46,0,0,1-15.57-3l-.49-1.27,1-6.55a46,46,0,0,0,.59-6.1q.11-3.08.2-12.94Z"/></svg>