<svg xmlns="http://www.w3.org/2000/svg" viewBox="0 0 512 512"><path d="M345,15.92a257,257,0,0,0-178.08,0L144.7,256,167,496.08a257,257,0,0,0,178.08,0L367.3,256Z" transform="translate(0 0)" style="fill:#ffda44"/><path d="M512,256c0-110.07-69.47-203.91-167-240.08V496.08C442.53,459.9,512,366.07,512,256Z" transform="translate(0 0)" style="fill:#d80027"/><path d="M0,256C0,366.07,69.47,459.9,167,496.08V15.92C69.47,52.09,0,145.93,0,256Z" transform="translate(0 0)" style="fill:#0052b4"/><path d="M239.78,177.86a4,4,0,0,0-2.38.65,2,2,0,0,1,1.4,1.89v2.3h-2.3a2,2,0,0,1-1.89-1.38,4.68,4.68,0,0,0,0,4.76,1.94,1.94,0,0,1,1.89-1.4h2.3v11.07a2,2,0,0,1-1.3,1.86c1.1.15,2,1.62,2.3,2.42.26-.8,1.2-2.27,2.3-2.42a2,2,0,0,1-1.32-1.86V184.68h2.31a1.94,1.94,0,0,1,1.88,1.39,4.7,4.7,0,0,0,0-4.77,1.94,1.94,0,0,1-1.88,1.4h-2.31v-2.3a2,2,0,0,1,1.38-1.89,4,4,0,0,0-2.38-.65Z" transform="translate(0 0)"/><path d="M239.78,178.34a4.21,4.21,0,0,0-1.36.22,2.46,2.46,0,0,1,.86,1.84v2.3a.36.36,0,0,1,0,.1v.36h-.37l-.09,0h-2.3a2.46,2.46,0,0,1-1.83-.84,4.19,4.19,0,0,0-.24,1.36,4.31,4.31,0,0,0,.23,1.37,2.39,2.39,0,0,1,1.84-.86h2.78a.68.68,0,0,0,0,.14v.24s0,.06,0,.1v11.06a2.36,2.36,0,0,1-.86,1.73,3.81,3.81,0,0,1,.9.79,5.06,5.06,0,0,1,.48.83,5.06,5.06,0,0,1,.48-.83,3.61,3.61,0,0,1,.88-.77,2.36,2.36,0,0,1-.85-1.75V184.23h.38l.09,0h2.3a2.46,2.46,0,0,1,1.83.84,4.19,4.19,0,0,0,.24-1.36,4.62,4.62,0,0,0-.22-1.37,2.43,2.43,0,0,1-1.85.86h-2.3l-.09,0h-.37v-.36s0-.07,0-.1v-2.3a2.44,2.44,0,0,1,.84-1.83,4.55,4.55,0,0,0-1.37-.23" transform="translate(0 0)" style="fill:#f5d402"/><path d="M268.6,218.4a12.44,12.44,0,0,1-3.39-3.44,20.89,20.89,0,0,1-2.8-11c0-1.67,1.87-3.55,1.87-4.91a23.69,23.69,0,0,0-.19-3.27c.66.1,1.82,1.27,1.82,1.27s0-3.39-1.11-4c0,0,.44-.45,2-.49-.44-1.12-2.62-2.48-2.62-2.48a1.52,1.52,0,0,1,.57-.51,7.36,7.36,0,0,1,1.91-.62,19.53,19.53,0,0,1-2.14-.58,49.23,49.23,0,0,1-5.94-2.42,17.55,17.55,0,0,0-7.94-1.85,7.4,7.4,0,0,0-3.7.66c-.87.59-.8,1.34-1.11,1.61a4.07,4.07,0,0,1-2.55.6c-3.86,0-4,4.13-4,4.13a3.52,3.52,0,0,1,2.73-1.49c2.9,0,5.09,1.58,5.09,2.17,0,.24-.3.29-.32.29-1.89,0-4.75-1.09-6.27-1.15v.75c3.39,1.18,6.83,2.85,6.83,10.21,0,4.63-.56,9.36-2.87,13.08a12.34,12.34,0,0,1-3.4,3.44l13.76,2.48Z" transform="translate(0 0)"/><path d="M254.83,215.3l-13.76,3.1a32.9,32.9,0,0,1-5.64-2.25c-3.63-2-5.52-4-9.84-4.24v-3.29c0-1.75.64-3.33.64-5-1.82-.49-6.88-6.67-11.54-9.42-6.87,4.45-12.18,11.74-12.18,15.1,0,0,.21,72.1,0,97.21a11.41,11.41,0,0,1-.87,3.5c2.5-1.06,7.1-7.35,8.06-9.73v1.14c3.79-1.73,6.56-6.26,7.8-8.6,0,.33.08,1.19.08,1.19,3.38-3,7.68-20.48,7.68-20.48l7.17,7.05s-2.59,5.26-3.6,6.2a11.07,11.07,0,0,0,1.44.08c-.47.68-4.08,5.87-5.21,7.83s-1.8,1-3.43,1c-1.34,0-4.4,2.15-4.9,3a6.3,6.3,0,0,0-.92,2.94,5.26,5.26,0,0,0,1.06,2.38,1.29,1.29,0,0,1,.32-.65s2.8,3.48,3.21,3.93a2.19,2.19,0,0,0,2.25.13,19.15,19.15,0,0,0,3.6-3.6c.58-.86.63-1.83,1.29-2.75,2.22-3.06,6.64-8.93,7.65-10.27.07.37.13.68.19,1.06,1.15-2.31,6.65-6.73,6.65-6.73l5.76,2.65s-10.75,24.73-20.3,28.53c0,0,4.15,1.76,9.26,4.41.74.39,1.51.8,2.28,1.23.64-.78,1.32-1.64,2-2.53,3-4.08,6-8.81,6-8.81.21,1.23-1.4,5-4.13,9.7-.53.92-1.09,1.88-1.71,2.86.69.39,1.37.79,2.06,1.2,5,3.05,9.8,6.54,11.56,9.75l1.24-3.1-1.24-3.11V219.42l.62-1.55Z" transform="translate(0 0)"/><path d="M254.83,327.93c-1.79-1.93-5.51-4.29-9.7-6.47,5.06-9.09,7.57-23.46,6.39-26.32,0,0-2.07,7.45-4.62,11.7a90.19,90.19,0,0,1-8,11.63,66.37,66.37,0,0,0-6.45-2.38c8.39-6.46,17-27.83,17-27.83l-8.87-4.11a46.88,46.88,0,0,1-4.4,4.59s-.46-1.92-.73-2.6a5.29,5.29,0,0,1-2,1s-.2-1.3-.36-2.16a4.26,4.26,0,0,1-2.33.46c1.28-.6,2.79-4.32,2.79-4.32L225,269.84s-3,14.3-6.37,17.23V225.5l2.68,2.49,4.07-3.79v-2.89l-3.61,3.36V216c.55-.82.91-1.44,1.18-1.92a25.8,25.8,0,0,0,4.68,6c.37-1.48,2.76-2.88,2.76-2.88s.86,2.32,2.18,2.9c.46-.81,3.22-2.62,3.22-2.62a8,8,0,0,0-3.32,1.26c-.82-.19-1-3.43-1-3.43s-3.47,1.69-4.08,2.9c-.66-.18-1.69-2.79-2.09-3.86a24.71,24.71,0,0,1,2.58-.14,9.3,9.3,0,0,1,3.59,1.1c1.46.68,3,1.55,4.35,2.17a16.37,16.37,0,0,0,5.16,1,23.07,23.07,0,0,1-2.9,1.71,19.28,19.28,0,0,0,7.08-1.49,27.51,27.51,0,0,0,3-2.13,11.27,11.27,0,0,1-2,3.56,9.64,9.64,0,0,0,7-3.64,11.65,11.65,0,0,0,1.58,2.94h1.55V324.85Z" transform="translate(0 0)" style="fill:#b07f55"/><path d="M223.21,203.92l.08,2v5.8c-1.56-.54-3.51-3.1-4.46-4.45v-.79a2.21,2.21,0,0,1,.76-1.59l-.93-.33a2.72,2.72,0,0,0-.75,1.79v.46l-2.79,3-2.75-4.16v-1a3.51,3.51,0,0,1,1-2l-.92-.33a3.89,3.89,0,0,0-1,2.17v.83l-3.15,3.25s-1.26-2.71-1.61-3.44a38.75,38.75,0,0,1,8-7.8s6.37,5.86,8.52,6.6Z" transform="translate(0 0)" style="fill:#b07f55"/><path d="M207.05,209.54v4.78l-2.22,2.07v-7.1a5.41,5.41,0,0,1,.76-2.4Z" transform="translate(0 0)" style="fill:#b07f55"/><path d="M214,211.38v3l-2.55,2.39V207.5Z" transform="translate(0 0)" style="fill:#b07f55"/><path d="M210.51,216.72,208,214.34v-3.46l2.56-2.69Z" transform="translate(0 0)" style="fill:#b07f55"/><path d="M222.18,213.13a13.61,13.61,0,0,1-3.83,3.8v-8.12C218.74,209.45,220.5,212.31,222.18,213.13Z" transform="translate(0 0)" style="fill:#b07f55"/><path d="M217.45,209.23v7.49l-2.56-2.38v-2.65Z" transform="translate(0 0)" style="fill:#b07f55"/><path d="M207.05,217.21v7.48l-2.22-2.08v-3.32Z" transform="translate(0 0)" style="fill:#b07f55"/><path d="M210.51,219.61v2.68L208,224.67v-7.44Z" transform="translate(0 0)" style="fill:#b07f55"/><path d="M214,217.23v7.44l-2.56-2.39v-2.66Z" transform="translate(0 0)" style="fill:#b07f55"/><path d="M217.45,219.62v2.66l-2.56,2.39v-7.44Z" transform="translate(0 0)" style="fill:#b07f55"/><path d="M220.91,224.69l-2.56-2.4V219.8a10.57,10.57,0,0,0,2.56-2.57Z" transform="translate(0 0)" style="fill:#b07f55"/><path d="M214.43,228l2.7-2.51v61.59s.19,3.06.32,5.05l-5.72,5.78V225.46Z" transform="translate(0 0)" style="fill:#b07f55"/><path d="M210.19,295.6c0,2-3.62,6.59-5.37,7.65V225.5l2.67,2.49,2.7-2.51Z" transform="translate(0 0)" style="fill:#b07f55"/><path d="M232.6,288.92l2-1.35s.13.65.3,1.54c-.84,1.15-5.68,7.76-8.08,11a11.08,11.08,0,0,0-1.09,2.84s-.88-.41-.88-1.16.1-1.6.1-1.6a2.48,2.48,0,0,1-1.78.75c0-.9,1.74-1.88,1.81-3.16-1.33,1-2.48.48-4,.95-1.68.52-2.14,1.22-2.66,1.19-.3,0-.57-.54-.46-.86a7.21,7.21,0,0,1,3.72-2.36c.34-.07,3.07.59,3.62-.26l6.28-9.69a2.05,2.05,0,0,0,.62-.23,4.84,4.84,0,0,0,.54,2.42Z" transform="translate(0 0)" style="fill:#d10429"/><path d="M220,299.79a.29.29,0,0,1,0,.41L219,301a.29.29,0,0,1-.41-.05.29.29,0,0,1,0-.41l.88-.78a.27.27,0,0,1,.21-.06.33.33,0,0,1,.21.11Z" transform="translate(0 0)" style="fill:#d10429"/><path d="M221.3,300.72a.71.71,0,0,1,0,1l-2.15,1.89a.73.73,0,0,1-1-.11.71.71,0,0,1,0-1l2.16-1.88a.72.72,0,0,1,.38-.16A.79.79,0,0,1,221.3,300.72Z" transform="translate(0 0)" style="fill:#d10429"/><path d="M222.53,302.18a.7.7,0,0,1,0,1l-2.17,1.89a.74.74,0,0,1-1-1.11l2.16-1.88a.67.67,0,0,1,.37-.15.75.75,0,0,1,.63.26Z" transform="translate(0 0)" style="fill:#d10429"/><path d="M223.28,303.34a.78.78,0,0,1,.62.26.72.72,0,0,1,0,1l-2.16,1.87a.73.73,0,0,1-1-1.09l2.17-1.89a.6.6,0,0,1,.37-.15Z" transform="translate(0 0)" style="fill:#d10429"/><path d="M254.82,215.3l13.76,3.1a32.9,32.9,0,0,0,5.64-2.25c3.63-2,5.52-4,9.84-4.24v-3.29c0-1.75-.64-3.33-.64-5,1.83-.49,6.88-6.67,11.55-9.42,6.86,4.45,12.17,11.74,12.17,15.1,0,0-.21,72.1,0,97.21A11.41,11.41,0,0,0,308,310c-2.5-1.06-7.09-7.35-8.06-9.73v1.14c-3.78-1.73-6.55-6.26-7.79-8.6,0,.33-.08,1.19-.08,1.19-3.38-3-7.69-20.48-7.69-20.48l-7.17,7.05s2.6,5.26,3.61,6.2a11.32,11.32,0,0,1-1.45.08c.47.68,4.08,5.87,5.21,7.83s1.8,1,3.43,1c1.35,0,4.4,2.15,4.9,3a6.3,6.3,0,0,1,.92,2.94,5.26,5.26,0,0,1-1.06,2.38,1.29,1.29,0,0,0-.32-.65s-2.79,3.48-3.2,3.93a2.21,2.21,0,0,1-2.26.13,19.15,19.15,0,0,1-3.6-3.6c-.58-.86-.62-1.83-1.29-2.75-2.22-3.06-6.64-8.93-7.65-10.27-.07.37-.13.68-.19,1.06-1.14-2.31-6.65-6.73-6.65-6.73l-5.76,2.65s10.75,24.73,20.3,28.53c0,0-4.15,1.76-9.25,4.41-.75.39-1.51.8-2.29,1.23-.64-.78-1.32-1.64-2-2.53-3.05-4.08-6-8.81-6-8.81-.2,1.23,1.41,5,4.13,9.7.54.92,1.1,1.88,1.72,2.86-.7.39-1.38.79-2.07,1.2-5.05,3.05-9.8,6.54-11.55,9.75l-1.24-3.1,1.24-3.11V219.42l-.62-1.55Z" transform="translate(0 0)"/><path d="M254.83,327.93c1.78-1.93,5.51-4.29,9.69-6.47-5.06-9.09-7.57-23.46-6.39-26.32,0,0,2.08,7.45,4.62,11.7a90.24,90.24,0,0,0,8.05,11.63,65.31,65.31,0,0,1,6.44-2.38c-8.39-6.46-17-27.83-17-27.83l8.87-4.11a46.88,46.88,0,0,0,4.4,4.59s.46-1.92.73-2.6a5.29,5.29,0,0,0,2,1s.21-1.3.36-2.16a4.29,4.29,0,0,0,2.34.46c-1.28-.6-2.8-4.32-2.8-4.32l8.48-11.26s3,14.3,6.36,17.23V225.5L288.3,228l-4.07-3.79v-2.89l3.61,3.36V216c-.55-.82-.91-1.44-1.18-1.92a25.8,25.8,0,0,1-4.68,6c-.36-1.48-2.76-2.88-2.76-2.88s-.86,2.32-2.18,2.9c-.46-.81-3.22-2.62-3.22-2.62a8,8,0,0,1,3.32,1.26c.82-.19,1-3.43,1-3.43s3.48,1.69,4.08,2.9c.66-.18,1.69-2.79,2.1-3.86a25.11,25.11,0,0,0-2.59-.14,9.35,9.35,0,0,0-3.59,1.1c-1.46.68-3,1.55-4.35,2.17a16.37,16.37,0,0,1-5.16,1,22.52,22.52,0,0,0,2.91,1.71,19.25,19.25,0,0,1-7.08-1.49,26.72,26.72,0,0,1-3.05-2.13,11.27,11.27,0,0,0,2,3.56,9.58,9.58,0,0,1-7-3.64,11.73,11.73,0,0,1-1.59,2.94h-1.55V324.85Z" transform="translate(0 0)" style="fill:#b07f55"/><path d="M286.44,203.92l-.08,2v5.8c1.56-.54,3.51-3.1,4.46-4.45v-.79a2.21,2.21,0,0,0-.76-1.59l.94-.33a2.76,2.76,0,0,1,.74,1.79v.46l2.8,3,2.74-4.16v-1a3.45,3.45,0,0,0-1-2l.92-.33a3.89,3.89,0,0,1,1,2.17v.83l3.16,3.25,1.6-3.44a38.44,38.44,0,0,0-8-7.8s-6.38,5.86-8.53,6.6Z" transform="translate(0 0)" style="fill:#b07f55"/><path d="M302.6,209.54v4.78l2.22,2.07v-7.1a5.41,5.41,0,0,0-.76-2.4Z" transform="translate(0 0)" style="fill:#b07f55"/><path d="M295.68,211.38v3l2.56,2.39V207.5Z" transform="translate(0 0)" style="fill:#b07f55"/><path d="M299.14,216.72l2.56-2.38v-3.46l-2.56-2.69Z" transform="translate(0 0)" style="fill:#b07f55"/><path d="M287.47,213.13a13.61,13.61,0,0,0,3.83,3.8v-8.12C290.92,209.45,289.15,212.31,287.47,213.13Z" transform="translate(0 0)" style="fill:#b07f55"/><path d="M292.21,209.23v7.49l2.55-2.38v-2.65Z" transform="translate(0 0)" style="fill:#b07f55"/><path d="M302.6,217.21v7.48l2.23-2.08v-3.32Z" transform="translate(0 0)" style="fill:#b07f55"/><path d="M299.14,219.61v2.68l2.56,2.38v-7.44Z" transform="translate(0 0)" style="fill:#b07f55"/><path d="M295.68,217.23v7.44l2.56-2.39v-2.66Z" transform="translate(0 0)" style="fill:#b07f55"/><path d="M292.21,219.62v2.66l2.55,2.39v-7.44Z" transform="translate(0 0)" style="fill:#b07f55"/><path d="M288.75,224.69l2.55-2.4V219.8a10.54,10.54,0,0,1-2.55-2.57Z" transform="translate(0 0)" style="fill:#b07f55"/><path d="M295.22,228l-2.7-2.51v61.59s-.18,3.06-.31,5.05l5.71,5.78V225.46Z" transform="translate(0 0)" style="fill:#b07f55"/><path d="M299.46,295.6c0,2,3.62,6.59,5.37,7.65V225.5L302.16,228l-2.7-2.51Z" transform="translate(0 0)" style="fill:#b07f55"/><path d="M277.05,288.92l-2-1.35s-.13.65-.3,1.54c.84,1.15,5.68,7.76,8.08,11a11.08,11.08,0,0,1,1.09,2.84s.88-.41.88-1.16-.1-1.6-.1-1.6a2.48,2.48,0,0,0,1.78.75c0-.9-1.74-1.88-1.81-3.16,1.33,1,2.48.48,4,.95s2.13,1.22,2.65,1.19c.3,0,.57-.54.46-.86a7.21,7.21,0,0,0-3.72-2.36c-.34-.07-3.07.59-3.62-.26l-6.28-9.69a2.05,2.05,0,0,1-.62-.23,4.84,4.84,0,0,1-.54,2.42Z" transform="translate(0 0)" style="fill:#d10429"/><path d="M289.71,299.79a.3.3,0,0,0,0,.41l.89.78a.29.29,0,0,0,.41-.05.3.3,0,0,0,0-.41l-.89-.78a.26.26,0,0,0-.21-.06.29.29,0,0,0-.2.11Z" transform="translate(0 0)" style="fill:#d10429"/><path d="M288.36,300.72a.7.7,0,0,0,0,1l2.16,1.89a.73.73,0,0,0,1-.11.72.72,0,0,0,0-1l-2.16-1.88a.8.8,0,0,0-.38-.16A.76.76,0,0,0,288.36,300.72Z" transform="translate(0 0)" style="fill:#d10429"/><path d="M287.12,302.18a.7.7,0,0,0,0,1l2.17,1.89a.74.74,0,0,0,1-1.11l-2.16-1.88a.64.64,0,0,0-.37-.15.77.77,0,0,0-.63.26Z" transform="translate(0 0)" style="fill:#d10429"/><path d="M286.37,303.34a.78.78,0,0,0-.62.26.72.72,0,0,0,0,1l2.16,1.87a.73.73,0,0,0,1-1.09l-2.17-1.89a.58.58,0,0,0-.37-.15Z" transform="translate(0 0)" style="fill:#d10429"/><path d="M251.64,185.11c3.56,0,6.05,1.62,9.42,3.11.88.4,1.69.71,2.41,1a3,3,0,0,0-.91,1.14,3.41,3.41,0,0,1,2.19,1.54s-1.43.16-1.66,1a2.1,2.1,0,0,1,1.6,2l-2-.64a25.66,25.66,0,0,1,.49,4.77c0,1.26-1.82,2.75-1.82,4.9,0,6.74,1.69,9.33,2.9,11.41a8.85,8.85,0,0,0,1.65,2.46c-3.48-1.85-6.06-4.16-6.06-6.31v-8.15h-.91v8.15a5.29,5.29,0,0,0,.38,2.28,30.19,30.19,0,0,0,2.34,5.46c-3.2-1.73-4.83-3.89-4.83-4.7V203.35h-.9V214.7l.17.78a6.84,6.84,0,0,1-1.24,1.51,7.13,7.13,0,0,1-1.22-1.51l.17-.78V203.35h-.9v11.19c0,.81-1.63,3-4.83,4.7a30.19,30.19,0,0,0,2.34-5.46,5.29,5.29,0,0,0,.38-2.28v-8.15h-.91v8.15c0,2.14-2.57,4.46-6,6.31a9.15,9.15,0,0,0,1.63-2.46c1.32-2.27,3-5.17,3-13.41a14,14,0,0,0-1.25-6.67c-.24-.48-.57-1.77,1.28-1.77,1,0,3.16,1.69,3.16,1.69a3,3,0,0,0-1.2-2.12,1.29,1.29,0,0,1-.49-.91,1.92,1.92,0,0,1,.85-1.14c.26-.12-3.78-.82-3.78-2.65,0-.38.24-.64,1.08-.64,1.1,0,2.89,1.32,4.48,1.32,1.17,0,1.64-.29,2.84-.29,1.47,0,4.54,2.79,5.59,2.69-1.17-.74-3.07-3.53-5.94-3.53-1,0-1.89.22-2.82.22-1.2,0-2.37-1.09-3.66-1.09-.86,0-1.82,0-2-.18-.25-.38,0-.61.2-.93.44-.61,1.67-.78,2.88-.83.36,0,.72,0,1.06,0Z" transform="translate(0 0)" style="fill:#b07f55"/><path d="M240.11,189.47a3,3,0,0,1,2.64-1.42c.79,0,3.41-.05,3.41-.05.35.9,1.94,2.42,1.94,4,0,0-1.61-2.91-6.12-2.91a4.34,4.34,0,0,0-1.87.39Z" transform="translate(0 0)" style="fill:#cc092f"/><path d="M247.43,192.54a7.63,7.63,0,0,0-1.17,1.55,11.53,11.53,0,0,1-2.61-2.06,6.35,6.35,0,0,0,3.78.51Z" transform="translate(0 0)" style="fill:#d10429"/><path d="M245.91,189.87s-1.11-.36-1.11-.73.54-.47.86-.1a1.71,1.71,0,0,1,.25.83Z" transform="translate(0 0)"/><ellipse cx="250.67" cy="189.9" rx="1.59" ry="1.25"/><circle cx="250.67" cy="189.9" r="1.1" style="fill:#f5d402"/><circle cx="250.67" cy="189.9" r="0.47"/><polygon points="225.42 304.59 230.44 307.33 229.23 312.93 224.2 310.19 225.42 304.59"/><path d="M202,250.88l-1.81.83,20.44,44.78h2.18Zm24.11,52.81-1.48,1.53.93,2,1.79-.82Z" transform="translate(0 0)"/><path d="M208.37,286.19s1.72,3.56,3,4.05a8.63,8.63,0,0,0-2.87.62s3.87,3.46,7.16,3.69a5.38,5.38,0,0,0,4.14-1.2l-.56-3a11,11,0,0,0-4.43-3,29,29,0,0,0-6.47-1.19Z" transform="translate(0 0)"/><path d="M221.35,279.82a10.74,10.74,0,0,0-3,4.39,9,9,0,0,0,.42,5l2,3.73a11,11,0,0,0,3.95-3.68,9.76,9.76,0,0,0,.74-5.18A12.12,12.12,0,0,0,223,285.3c.46-2.44-1.62-5.48-1.62-5.48Z" transform="translate(0 0)"/><path d="M213.71,278.87a16.14,16.14,0,0,1-5.33.75,8.16,8.16,0,0,1-4.58-2.25s2.07-1.4,3.1-1.22c-1.13-.41-2.76-3.23-2.76-3.23a7.68,7.68,0,0,1,4.37.08,11,11,0,0,1,3.86,3l1.34,2.84Z" transform="translate(0 0)"/><path d="M214.64,265.66s1.35,2.8,1,3.77a9.3,9.3,0,0,1,2-1.66s1,4.54,0,7.34A6.79,6.79,0,0,1,214,279l-3.08-6a6.6,6.6,0,0,1,.5-4,12.35,12.35,0,0,1,3.21-3.34Z" transform="translate(0 0)"/><path d="M197,258.24a13.11,13.11,0,0,1,5.6.8,5.38,5.38,0,0,1,2.92,2.62l1.1,2.95s-3.18,1.19-5.69.28-4.36-3.93-4.36-3.93a5.45,5.45,0,0,1,2.42-.42c-1-.43-2-2.3-2-2.3Z" transform="translate(0 0)"/><path d="M206.24,252.76a6.84,6.84,0,0,1,1.32,3.55,6.13,6.13,0,0,1,1.94-2.13s1.65,4,1.29,6.82a7.19,7.19,0,0,1-2.73,4.51l-3-5.61a9.21,9.21,0,0,1-.68-4.09,5.71,5.71,0,0,1,1.82-3.05Z" transform="translate(0 0)"/><path d="M196.11,242s-.53,3.06.38,4.82a5.41,5.41,0,0,0,1.31,1.91,8.79,8.79,0,0,0-3.85-1.1s.82,3.33,2.8,4.84,5,1.17,5,1.17a9.85,9.85,0,0,0,1.86-5.54c-.14-2.88-2.42-6-2.42-6a11,11,0,0,0-1,3.26c-.58-1.43-4.12-3.4-4.12-3.4Z" transform="translate(0 0)"/><path d="M220,293.22l.08,1.1c1.82,0,2.1-.17,2.56.41a1.55,1.55,0,0,0,1.8.37,1.51,1.51,0,0,0,.74-2,1.42,1.42,0,0,0-1.7-.78c-.41.08-.68.41-1,.59a7.42,7.42,0,0,1-2.45.28Z" transform="translate(0 0)"/><path d="M219.83,292.38l.89.65c-.95,1.56-1.25,1.69-1,2.39a1.54,1.54,0,0,1-.63,1.72,1.51,1.51,0,0,1-2.07-.42,1.43,1.43,0,0,1,.24-1.85,4.37,4.37,0,0,1,1-.56,7.43,7.43,0,0,0,1.54-1.93Z" transform="translate(0 0)"/><path d="M213.66,279.36l.08,1.1c1.83,0,2.1-.17,2.56.41a1.55,1.55,0,0,0,1.8.37,1.5,1.5,0,0,0,.74-2,1.42,1.42,0,0,0-1.7-.78c-.41.08-.68.41-1,.59a7.42,7.42,0,0,1-2.45.28Z" transform="translate(0 0)"/><path d="M214,279.75l.78.78c-1.19,1.38-1.5,1.47-1.37,2.2a1.55,1.55,0,0,1-.89,1.6,1.5,1.5,0,0,1-2-.73,1.41,1.41,0,0,1,.53-1.79,3.77,3.77,0,0,1,1.11-.39,7.52,7.52,0,0,0,1.82-1.67Z" transform="translate(0 0)"/><path d="M207.53,266.38l.08,1.1c1.82,0,2.09-.17,2.56.41a1.57,1.57,0,0,0,1.8.38,1.5,1.5,0,0,0,.73-2,1.41,1.41,0,0,0-1.69-.78c-.41.08-.68.41-1,.59a7.42,7.42,0,0,1-2.45.28Z" transform="translate(0 0)"/><path d="M208,266.15l.78.78c-1.18,1.39-1.5,1.48-1.37,2.21a1.54,1.54,0,0,1-.89,1.6,1.51,1.51,0,0,1-2-.74,1.42,1.42,0,0,1,.53-1.79c.33-.26.75-.24,1.11-.39a7.14,7.14,0,0,0,1.82-1.67Z" transform="translate(0 0)"/><path d="M201,252.68l.09,1.1c1.82,0,2.09-.17,2.56.41a1.54,1.54,0,0,0,1.79.38,1.5,1.5,0,0,0,.74-2,1.42,1.42,0,0,0-1.7-.78,4.12,4.12,0,0,0-1,.59,7.47,7.47,0,0,1-2.46.28Z" transform="translate(0 0)"/><path d="M201.5,252.45l.77.78c-1.18,1.39-1.49,1.48-1.36,2.21A1.56,1.56,0,0,1,200,257a1.5,1.5,0,0,1-2-.74,1.42,1.42,0,0,1,.53-1.79,4.44,4.44,0,0,1,1.11-.39,7.32,7.32,0,0,0,1.82-1.67Z" transform="translate(0 0)"/><polygon points="226.15 306.18 229.26 307.88 228.5 311.35 225.39 309.65 226.15 306.18" style="fill:#f5d402"/><path d="M212.51,276.11c-.66.27-1.63-2.57-2.34-4.13s-2.21-4.06-1.79-4.25,1.07,1.08,1.82,2.71,2.92,5.41,2.31,5.67Z" transform="translate(0 0)" style="fill:#f5d402"/><path d="M205.8,261.14c-.65.27-1.37-1.59-2.08-3.15s-1.44-2.73-1-2.92,1.14,1.19,1.74,2.5,2,3.31,1.36,3.57Z" transform="translate(0 0)" style="fill:#f5d402"/><path d="M221.31,295.09c-.51.13-2.75-4.55-4.55-8.51s-3.16-7.17-2.74-7.36,1.93,3.53,3.74,7.49,3.94,8.27,3.55,8.38Z" transform="translate(0 0)" style="fill:#f5d402"/><path d="M197,243.89a8,8,0,0,0,.66,3.5,4.63,4.63,0,0,0,2.39,1.77,8,8,0,0,0-.66-3.5A4.7,4.7,0,0,0,197,243.89Z" transform="translate(0 0)" style="fill:#097754"/><path d="M195.47,248.94a6.62,6.62,0,0,1,3.06,1,5.36,5.36,0,0,1,1.55,2.64,3.69,3.69,0,0,1-2.4-.73A11,11,0,0,1,195.47,248.94Z" transform="translate(0 0)" style="fill:#097754"/><path d="M201.56,244.43a7.7,7.7,0,0,0-.57,3.08,9.8,9.8,0,0,0,1,3.39,9.53,9.53,0,0,0,.77-3.51,5.87,5.87,0,0,0-1.2-3Z" transform="translate(0 0)" style="fill:#097754"/><path d="M198.29,258.81a7.29,7.29,0,0,0,2.42,2.05,10.12,10.12,0,0,0,3.65.76,8.39,8.39,0,0,0-2.56-2.14,8.66,8.66,0,0,0-3.51-.67Z" transform="translate(0 0)" style="fill:#097754"/><path d="M198.76,261.9a4.81,4.81,0,0,0,2,2,12.18,12.18,0,0,0,3.9.54,7.26,7.26,0,0,0-2.28-1.87,11.46,11.46,0,0,0-3.6-.63Z" transform="translate(0 0)" style="fill:#097754"/><path d="M206.13,254.59a5.33,5.33,0,0,0-.7,2.68,7.68,7.68,0,0,0,1,3,9.53,9.53,0,0,0,.57-3.17,4.93,4.93,0,0,0-.88-2.46Z" transform="translate(0 0)" style="fill:#097754"/><path d="M209,256.39a8.64,8.64,0,0,0-1.51,3.61,7.76,7.76,0,0,0,.75,3.7,6.76,6.76,0,0,0,1.79-3.43,7.53,7.53,0,0,0-1-3.88Z" transform="translate(0 0)" style="fill:#097754"/><path d="M205.33,273.26a3.89,3.89,0,0,0,.72,1.36,11,11,0,0,0,1.49,1.43,4.38,4.38,0,0,1,2.06,0,9.84,9.84,0,0,1,2.64,1.25,12.69,12.69,0,0,0-3.31-3.37,6.19,6.19,0,0,0-3.6-.63Z" transform="translate(0 0)" style="fill:#097754"/><path d="M205.17,277.44a8.76,8.76,0,0,1,3.84-.67,7.37,7.37,0,0,1,3.3,1.6,11,11,0,0,1-4.08.58,6.16,6.16,0,0,1-3.07-1.51Z" transform="translate(0 0)" style="fill:#097754"/><path d="M214.07,267.64s-1.86,2-2,3.69,1.51,3.31,1.51,3.31a5.12,5.12,0,0,1,.2-1.82,7.18,7.18,0,0,1,.9-1.5,4.5,4.5,0,0,0,.16-1.59,7.41,7.41,0,0,0-.75-2.09Z" transform="translate(0 0)" style="fill:#097754"/><path d="M216.74,269.93a9.64,9.64,0,0,0-2.22,3.68,7.36,7.36,0,0,0,.36,3.93,6.45,6.45,0,0,0,2.06-3.16,10.84,10.84,0,0,0-.2-4.45Z" transform="translate(0 0)" style="fill:#097754"/><path d="M221.14,281.4a12.9,12.9,0,0,1,1,3.05,4.14,4.14,0,0,1,0,1.86s-.82.81-1.19,1.29a3.67,3.67,0,0,0-.54,1.73s-1.66-2.46-1.4-4.25a8.19,8.19,0,0,1,2.12-3.68Z" transform="translate(0 0)" style="fill:#097754"/><path d="M224.62,285.24a11.2,11.2,0,0,0-3,2.83,4,4,0,0,0-.4,2.9,3.29,3.29,0,0,0,2.35-1.57,12.12,12.12,0,0,0,1-4.16Z" transform="translate(0 0)" style="fill:#097754"/><path d="M210.73,291.14a23.23,23.23,0,0,1,4.9.37,4.32,4.32,0,0,1,2.54,1.46,6.88,6.88,0,0,1-3.95.52,8.27,8.27,0,0,1-3.5-2.35Z" transform="translate(0 0)" style="fill:#097754"/><path d="M210.21,287.52a8.82,8.82,0,0,0,3.15,2.9,10.32,10.32,0,0,0,5.29.55,10.34,10.34,0,0,0-3.66-2.72,13.84,13.84,0,0,0-4.78-.73Z" transform="translate(0 0)" style="fill:#097754"/><path d="M314.53,245.68l.4.84a1.81,1.81,0,0,0-.94.79,1.71,1.71,0,0,0,.19,1.38s-3.35-.29-3.87.05.2,2.63-.11,4.59c-.44,2.73-1.52,2.5-1.56,3a3.18,3.18,0,0,0,.41,1.32s-.63.19-.76.46c-.22.42.15,1.2-.11,1.71l-5,9.87c-.2.39-.74.54-1,1.07a1.92,1.92,0,0,0,0,1.19,1.67,1.67,0,0,0-1.27.7,2.71,2.71,0,0,0-.14,1.6,1.26,1.26,0,0,0-.89.65c-.32.62.21.94.08,1.21-1.92,3.75-4.17,8.17-5.54,10.87-.51,1-2.28,1.19-3.31,3.21a3,3,0,0,0,.43,3.4s-1.48.13-1.87.9a2,2,0,0,0,3.62,1.84c.39-.77-.4-2.05-.4-2.05a3,3,0,0,0,3-1.66c1-2,.16-3.55.67-4.54L302,277.23c.14-.27.7,0,1-.65a1.23,1.23,0,0,0,0-1.09,2.78,2.78,0,0,0,1.22-1.07,1.65,1.65,0,0,0-.18-1.44,1.94,1.94,0,0,0,.94-.73c.27-.53.07-1,.27-1.43,1.42-2.79,3.58-7,5-9.87.26-.52,1.1-.69,1.32-1.11.13-.27-.08-.89-.08-.89a3.15,3.15,0,0,0,1.32-.43c.4-.35-.42-1.09,1.54-3,1.4-1.4,3.66-2.23,3.63-2.79s-2.23-3.16-2.23-3.16.93-.08,1.22-.65a1.87,1.87,0,0,0,.09-1.24l.92-.16V243.1Zm-30.43,60.8a1,1,0,0,0,0,1s-1.11-.34-1.49-.16,0,5.42,0,5.42,4.43-2.8,4.36-3.19-1-1.13-1-1.13a1.06,1.06,0,0,0,.78-.56c.15-.28.16-1.1-.84-1.62a1.88,1.88,0,0,0-1-.22,1.05,1.05,0,0,0-.82.5Z" transform="translate(0 0)"/><path d="M315.34,245.85l2.09,1.07,0-2.53Z" transform="translate(0 0)" style="fill:#f5d402"/><path d="M314.53,247.38a1.21,1.21,0,1,0,1.55-.42,1.28,1.28,0,0,0-.68-.14,1,1,0,0,0-.87.56Z" transform="translate(0 0)" style="fill:#f5d402"/><path d="M310.92,249.3c-.22.14.08,2,0,3.63a4.29,4.29,0,0,1-.81,2.46,4.14,4.14,0,0,1-1.13,1.05l.73.73s.48-.74,1.22-2.21c.89-1.73.86-4.86,1.12-5a20.9,20.9,0,0,1,2.06-.6s-1.69-.09-2.62-.08A1.71,1.71,0,0,0,310.92,249.3Z" transform="translate(0 0)" style="fill:#f5d402"/><path d="M311.12,258a23.11,23.11,0,0,1,1.09-2.35c1-2,3.22-3.48,3.27-3.84a9.77,9.77,0,0,0-.76-2.14,10.07,10.07,0,0,0-2.21.63c-.26.26-.15,2.88-1.17,4.89a24.47,24.47,0,0,1-1.27,2.29Z" transform="translate(0 0)" style="fill:#f5d402"/><path d="M316.05,252c0,.31-2.53,2.13-3.41,3.86-.75,1.47-1.06,2.29-1.06,2.29l1,.16a3.91,3.91,0,0,1,.18-1.53,4.18,4.18,0,0,1,1.52-2.09c1.26-1,3-1.87,2.95-2.13a25.66,25.66,0,0,0-1.9-2.59,20,20,0,0,1,.71,2Z" transform="translate(0 0)" style="fill:#f5d402"/><path d="M308.59,263.28a19.48,19.48,0,0,1,2.19-3.59.92.92,0,0,0-.52-1.3,1.19,1.19,0,0,0-.67-.14.86.86,0,0,0-.68.49,18.81,18.81,0,0,1-1.62,3.89l-3.48,6.81a.73.73,0,0,0,.32,1,.69.69,0,0,0,1-.35Z" transform="translate(0 0)" style="fill:#f5d402"/><path d="M302.45,271.09c-.19.37.13.92.73,1.22s1.24.25,1.43-.12-.15-.92-.75-1.23a1.67,1.67,0,0,0-.86-.19A.68.68,0,0,0,302.45,271.09Z" transform="translate(0 0)" style="fill:#f5d402"/><path d="M301.16,273c-.24.48.14,1.17.86,1.54s1.5.27,1.75-.21-.14-1.17-.86-1.54a1.89,1.89,0,0,0-.8-.22,1,1,0,0,0-.95.43Z" transform="translate(0 0)" style="fill:#f5d402"/><path d="M300.35,275.19c-.19.37.14.92.73,1.22s1.24.24,1.43-.13-.13-.92-.73-1.22a1.7,1.7,0,0,0-.87-.19.65.65,0,0,0-.56.32Z" transform="translate(0 0)" style="fill:#f5d402"/><path d="M299.83,277.25l-5.22,10.27c-.44.86-2.27,1.39-3,2.8a2.16,2.16,0,1,0,3.78,1.93c.72-1.41.07-3.21.51-4.06l5.22-10.27a.72.72,0,0,0-.3-1,.77.77,0,0,0-.45-.08A.8.8,0,0,0,299.83,277.25Z" transform="translate(0 0)" style="fill:#f5d402"/><path d="M290.06,294.89a1.47,1.47,0,1,0,1.8-.38,1.59,1.59,0,0,0-.8-.19,1.11,1.11,0,0,0-1,.57Z" transform="translate(0 0)" style="fill:#f5d402"/><path d="M284.92,306.49a.52.52,0,0,0-.47.22c-.15.29.15.75.68,1s1.07.24,1.22-.05-.16-.75-.68-1a1.47,1.47,0,0,0-.75-.18Z" transform="translate(0 0)" style="fill:#f5d402"/><path d="M283.11,307.92v3.75l3.05-2.19a3.39,3.39,0,0,0-1.32-1.2,3.3,3.3,0,0,0-1.73-.36Z" transform="translate(0 0)" style="fill:#f5d402"/><path d="M285,224.48c0-2,2.7-4.08,2.7-4.08H221.93s2.69,2,2.69,4.08v49a4.42,4.42,0,0,0,1,2.95,13.71,13.71,0,0,0,3.38,3c4.32,2.81,11.55,5.77,17,8.25,4.56,2.08,6.41,2.91,8.78,5.85,2.37-2.94,4.24-3.77,8.8-5.85,5.46-2.48,12.69-5.44,17-8.25a14,14,0,0,0,3.39-3,4.46,4.46,0,0,0,1-2.95Z" transform="translate(0 0)" style="fill:#f5d402"/><path d="M226.18,252.2V224.48a4.18,4.18,0,0,0-.79-2.52h58.89a4.18,4.18,0,0,0-.79,2.52V252.2l-28.66,8.68Z" transform="translate(0 0)" style="fill:#d10429"/><path d="M283.5,252.2l-17.74-.33H243.93l-17.75.33v21.27c0,1.07,1.11,3.57,7.51,6.76C244.27,285.5,252.4,288,254.83,291c2.44-3,10.57-5.46,21.15-10.73,6.4-3.19,7.51-5.69,7.51-6.76Z" transform="translate(0 0)" style="fill:#0b45bb"/><path d="M265.33,251.09s10.23-2.58,10.23-13.53c0-8.54-10.26-12.78-10.55-14.82-1,3.53,3.43,8.4,3.43,14.17,0,7.47-5.51,7.83-5.51,7.83-1.29,0-1.81.92-2.32.92-1.08-.11-1.59-1.49-2.67-1.49s-1.78,1.55-3.11,1.55-2.09-1.55-3.09-1.55-1.59,1.38-2.67,1.49c-.51,0-1-.92-2.32-.92,0,0-5.51-.36-5.51-7.83,0-5.77,4.44-10.64,3.43-14.17-.29,2-10.55,6.28-10.55,14.82,0,10.95,10.24,13.53,10.24,13.53l-2.92,5.32s4.23.21,6.47,2.12c2.71,2.31,2.45,7.21,2.45,10.77,0,2.8-.36,5.76-1.8,7-1.93,1.64-3.24,1.76-3.24,3.68,0,1.61,1.24,1.93,3.24,3,2.57,1.35,2.45,3.17,6.27,3.17s3.72-1.81,6.29-3.17c2-1.06,3.24-1.38,3.24-3,0-1.92-1.31-2-3.24-3.68-1.44-1.22-1.79-4.18-1.79-7,0-3.56-.27-8.46,2.44-10.77,2.25-1.91,6.48-2.12,6.48-2.12Z" transform="translate(0 0)"/><path d="M254.83,223.5l-1.78,5.05-4.84-2.31,2.3,4.85-5,1.79,5,1.79-2.3,4.83,4.84-2.3,1.78,5,1.8-5,4.84,2.3-2.3-4.83,5-1.79-5-1.79,2.3-4.85-4.84,2.31Z" transform="translate(0 0)"/><path d="M243.93,251.87s-6.33-1.55-8.69-4.67a24.44,24.44,0,0,1-9.06,5,55.29,55.29,0,0,1,9.06,5.29c1.81-2.59,8.69-5.62,8.69-5.62Z" transform="translate(0 0)"/><path d="M265.75,251.87s6.88,3,8.69,5.62a55.29,55.29,0,0,1,9.06-5.29,24.36,24.36,0,0,1-9.06-5c-2.36,3.12-8.69,4.67-8.69,4.67Z" transform="translate(0 0)"/><path d="M246.52,258.6l-2.47,2.46,2.47,2.46,2.46-2.46Z" transform="translate(0 0)"/><path d="M263.17,258.6l-2.46,2.46,2.46,2.46,2.46-2.46Z" transform="translate(0 0)"/><path d="M245.9,273a28.44,28.44,0,0,1-.31,4.75,6.28,6.28,0,0,0,4.16-4.54c.33-1.65.69-7.73-1-8.76l-4.52-.89A27.93,27.93,0,0,1,245.9,273Z" transform="translate(0 0)"/><path d="M260.91,264.41c-1.67,1-1.31,7.11-1,8.76a6.28,6.28,0,0,0,4.16,4.54,29.36,29.36,0,0,1-.3-4.75,27.68,27.68,0,0,1,1.65-9.44Z" transform="translate(0 0)"/><path d="M235.23,264.58a2.92,2.92,0,0,0-2.11,3.54,3,3,0,0,0,.27.67,2.49,2.49,0,0,0-.72-.14h-.3a2.91,2.91,0,0,0-.09,5.81,3.25,3.25,0,0,0,.7,0,2.91,2.91,0,1,0,5.06,2.8,2.82,2.82,0,0,0,.17-.68,3.06,3.06,0,0,0,.5.52,2.91,2.91,0,1,0,3.74-4.46,2.53,2.53,0,0,0-.6-.38,2.92,2.92,0,0,0-1.08-5.69,3,3,0,0,0-1.37.45,3,3,0,0,0-.55.44,2.93,2.93,0,0,0-3.62-2.84Z" transform="translate(0 0)"/><path d="M266.18,273.06a7.41,7.41,0,0,0,5.72,6.17,6.66,6.66,0,0,1-1-2.74,5.81,5.81,0,0,1,6.08-6.38,7.56,7.56,0,0,1,1.72.2,7.72,7.72,0,0,0-6.48-3.65A5.82,5.82,0,0,0,266.18,273.06Z" transform="translate(0 0)"/><path d="M239.75,236.91c0,5.62,3,8.94,7,8.94.77,0,1.6,1,2.32,1,1.17,0,2-1.3,2.67-1.3.91,0,1.52,1.43,3.09,1.43s2.21-1.43,3.11-1.43c.72,0,1.5,1.3,2.67,1.3.72,0,1.56-1,2.32-1,4,0,7-3.32,7-8.94,0-4.58-3.85-10.17-3.43-11.08,0,0,7.51,5.39,7.51,11.73,0,10.22-10.37,12.75-10.37,12.75l2.34,5.25a12.72,12.72,0,0,0-5.18,2.07c-2.61,2.11-2.65,7.81-2.65,11.67,0,4.54.17,6.46,1.81,7.69s3,1.59,3,2.91c0,1.15-1.34,1.63-3.09,2.4-2,.87-2.19,2.39-5.07,2.39s-3.06-1.52-5-2.39c-1.75-.77-3.1-1.25-3.1-2.4,0-1.32,1.3-1.6,3-2.91s1.81-3.15,1.81-7.69c0-3.86,0-9.56-2.65-11.67a12.7,12.7,0,0,0-5.17-2.07l2.33-5.25s-10.37-2.53-10.37-12.75c0-6.34,7.51-11.73,7.51-11.73.42.91-3.43,6.5-3.43,11.08Zm11.16,42.21c-2,0-3.33.43-3.33,1.05s1.3,1,3.33,1a1.06,1.06,0,0,0,1.16-1,1.08,1.08,0,0,0-1.16-1.05Zm7.86,0a1.08,1.08,0,0,0-1.16,1.05,1.06,1.06,0,0,0,1.16,1c2,0,3.33-.41,3.33-1s-1.29-1.05-3.33-1.05Z" transform="translate(0 0)" style="fill:#ffd200"/><path d="M254.85,226.9l1.14,3.22,3.08-1.48-1.46,3.1,3.21,1.14L257.61,234l1.46,3.08L256,235.64l-1.16,3.21-1.14-3.21-3.08,1.46,1.46-3.08-3.2-1.14,3.2-1.14-1.46-3.1,3.08,1.48,1.16-3.22Z" transform="translate(0 0)" style="fill:#ffd200"/><path d="M240.55,252.06,235.24,256l-.06.07-.11-.09-5.88-3.68a18.1,18.1,0,0,0,6-3.54,12.42,12.42,0,0,0,5.4,3.3Z" transform="translate(0 0)" style="fill:#ffd200"/><path d="M280.48,252.3a34.14,34.14,0,0,0-5.87,3.68l-.11.09-.06-.07a21.66,21.66,0,0,0-5.31-3.94,12.42,12.42,0,0,0,5.4-3.3A18.1,18.1,0,0,0,280.48,252.3Z" transform="translate(0 0)" style="fill:#ffd200"/><path d="M246.52,259.77l1.28,1.29-1.28,1.3-1.31-1.3Z" transform="translate(0 0)" style="fill:#ffd200"/><path d="M263.17,259.77l1.3,1.29-1.3,1.3-1.29-1.3Z" transform="translate(0 0)" style="fill:#ffd200"/><path d="M248.26,265.39c.9,1.24.75,3.24.75,6a4.37,4.37,0,0,1-2.11,3.89,38.6,38.6,0,0,0-1.07-10.43Z" transform="translate(0 0)" style="fill:#ffd200"/><path d="M263.85,264.88a38.79,38.79,0,0,0-1.06,10.43,4.37,4.37,0,0,1-2.12-3.89c0-2.79-.15-4.79.75-6l2.43-.51Z" transform="translate(0 0)" style="fill:#ffd200"/><path d="M238.28,267.44a2.11,2.11,0,0,1,0,.75,1.9,1.9,0,0,1-.14.57,3.23,3.23,0,0,0-1.13-.19,3.29,3.29,0,0,0-2.46,1.11,2.73,2.73,0,0,1-.41-.48,2.15,2.15,0,0,1-.3-.67,2.26,2.26,0,0,1,1.65-2.74,2.44,2.44,0,0,1,.46-.07,2.28,2.28,0,0,1,2.29,1.72Z" transform="translate(0 0)" style="fill:#ffd200"/><path d="M241.66,271.67a2,2,0,0,1-.69.28,2.35,2.35,0,0,1-.59,0,3.45,3.45,0,0,0-.17-1.13,3.28,3.28,0,0,0-1.82-2,2.52,2.52,0,0,1,.33-.54,2.31,2.31,0,0,1,.54-.49,2.27,2.27,0,0,1,3.12.72,2.35,2.35,0,0,1,.21.42,2.26,2.26,0,0,1-.93,2.7Z" transform="translate(0 0)" style="fill:#ffd200"/><path d="M238.68,276.2a2.1,2.1,0,0,1-.7-1.12,3.3,3.3,0,0,0,2.36-2.85,2.23,2.23,0,0,1,.62.14,2.1,2.1,0,0,1,.63.36,2.27,2.27,0,0,1,.28,3.19,2.48,2.48,0,0,1-.33.32,2.26,2.26,0,0,1-2.86,0Z" transform="translate(0 0)" style="fill:#ffd200"/><path d="M233.45,274.76a2.41,2.41,0,0,1,.4-.63,2.67,2.67,0,0,1,.45-.38,3.32,3.32,0,0,0,3.45,1.37,2.6,2.6,0,0,1,.05.63,2,2,0,0,1-.15.71,2.26,2.26,0,0,1-3,1.25,1.81,1.81,0,0,1-.41-.22,2.26,2.26,0,0,1-.84-2.73Z" transform="translate(0 0)" style="fill:#ffd200"/><path d="M233.2,269.35a2.52,2.52,0,0,1,.73.18,2.23,2.23,0,0,1,.5.32,3.14,3.14,0,0,0-.53,1,3.24,3.24,0,0,0,.29,2.68,2.31,2.31,0,0,1-.58.25,2.16,2.16,0,0,1-.72.08,2.28,2.28,0,0,1-2.11-2.42,2.34,2.34,0,0,1,.09-.46,2.25,2.25,0,0,1,2.33-1.64Z" transform="translate(0 0)" style="fill:#ffd200"/><circle cx="237.05" cy="271.89" r="2.19" style="fill:#ffd200"/><path d="M275.52,268.93a7.12,7.12,0,0,0-5.88,7.67,5.72,5.72,0,0,1-2.16-3.68c-.29-2.79,1.73-4.94,4.78-4.94a6.29,6.29,0,0,1,3.26.95Z" transform="translate(0 0)" style="fill:#ffd200"/></svg>