<svg width="1920" height="1080" viewBox="0 0 1920 1080" fill="none" xmlns="http://www.w3.org/2000/svg">
<rect width="1920" height="1080" fill="white"/>
<path d="M556.86 567.87H561.06L561.94 568.75C562.023 573.451 562.357 578.145 562.94 582.81C564.94 585.87 568.423 588.36 573.39 590.28C578.039 592.14 582.993 593.117 588 593.16C594.9 593.16 600.417 591.307 604.55 587.6C606.493 585.976 608.056 583.945 609.128 581.65C610.199 579.355 610.753 576.853 610.75 574.32C610.825 571.702 610.042 569.131 608.52 567C606.735 564.77 604.397 563.047 601.74 562C598.707 560.667 593.287 559.09 585.48 557.27C578.773 555.703 574.083 554.48 571.41 553.6C568.575 552.636 565.957 551.128 563.7 549.16C561.214 547.084 559.26 544.444 558 541.46C555.795 536.085 555.428 530.132 556.954 524.526C558.48 518.921 561.815 513.976 566.44 510.46C573.38 505.22 582.023 502.6 592.37 502.6C597.176 502.655 601.961 503.259 606.63 504.4C610.619 505.258 614.537 506.418 618.35 507.87L619.23 509.24C618.697 511.84 618.363 518.677 618.23 529.75L617.35 530.62H613.5L612.62 529.75C612.524 526.939 612.166 524.144 611.55 521.4C610.813 519.418 609.593 517.651 608 516.26C605.693 514.152 602.967 512.553 600 511.57C596.495 510.293 592.791 509.649 589.06 509.67C585.641 509.567 582.238 510.166 579.06 511.43C576.421 512.549 574.153 514.394 572.52 516.75C570.809 519.3 569.939 522.321 570.03 525.39C569.999 527.685 570.524 529.953 571.56 532C572.613 533.998 574.225 535.645 576.2 536.74C578.24 537.922 580.444 538.795 582.74 539.33L593.39 542.06C602.503 544.267 609.03 546.187 612.97 547.82C616.698 549.281 619.885 551.854 622.1 555.19C624.336 558.784 625.457 562.96 625.32 567.19C625.32 576.17 621.61 583.883 614.19 590.33C606.77 596.777 597.23 600 585.57 600C580.45 599.911 575.344 599.453 570.29 598.63C565.05 597.891 559.85 596.89 554.71 595.63L554.23 594.36L555.23 587.81C555.557 585.792 555.754 583.754 555.82 581.71C555.88 579.657 555.943 575.343 556.01 568.77L556.86 567.87Z" fill="black"/>
<path d="M636.26 519.92V517.38L636.94 516.38C642.008 514.552 646.967 512.431 651.79 510.03C651.79 493.036 651.593 483.14 651.2 480.34C656.955 478.436 662.487 475.915 667.7 472.82L670.05 474.77C669.383 478.876 668.6 490.793 667.7 510.52C670.96 510.58 674.47 510.61 678.25 510.61C683.756 510.699 689.264 510.505 694.75 510.03L695.44 510.71L693.58 519L692.8 519.87C689.467 519.81 685.8 519.78 681.8 519.78C678.153 519.78 673.463 519.81 667.73 519.87L667.15 559.62C667.15 568.8 667.36 574.8 667.78 577.62C668.069 580.199 669.328 582.573 671.3 584.26C673.22 585.853 676.067 586.65 679.84 586.65C684.118 586.673 688.316 585.488 691.95 583.23L694.3 586.75C692.727 587.863 688.983 591.116 683.07 596.51C679.831 598.045 676.294 598.847 672.71 598.86C658.043 598.86 650.71 591.763 650.71 577.57C650.71 572.363 650.84 567.936 651.1 564.29C651.17 563.18 651.2 562.04 651.2 560.87V520.31H647.2C644.27 520.31 640.91 520.44 637.14 520.7L636.26 519.92Z" fill="black"/>
<path d="M703.64 551.86C703.637 544.133 705.27 536.492 708.43 529.44C711.617 522.254 717.167 516.037 725.08 510.79C732.993 505.544 742.383 502.924 753.25 502.93C766.917 502.93 778.05 507.244 786.65 515.87C795.25 524.497 799.547 535.58 799.54 549.12C799.54 564.034 794.607 576.307 784.74 585.94C780.067 590.623 774.498 594.316 768.366 596.799C762.234 599.282 755.665 600.503 749.05 600.39C740.345 600.507 731.818 597.925 724.64 593C717.849 588.512 712.372 582.3 708.77 575C705.322 567.777 703.568 559.863 703.64 551.86ZM722.1 545.12C721.979 553.407 723.163 561.662 725.61 569.58C727.64 576.28 731.498 582.282 736.75 586.91C741.533 591.17 747.726 593.503 754.13 593.46C757.787 593.512 761.407 592.714 764.704 591.13C768.001 589.546 770.885 587.218 773.13 584.33C778.143 578.237 780.65 569.074 780.65 556.84C780.65 542.967 777.933 531.604 772.5 522.75C767.067 513.897 759.25 509.47 749.05 509.47C740.59 509.47 733.983 512.53 729.23 518.65C724.477 524.77 722.1 533.594 722.1 545.12Z" fill="black"/>
<path d="M843.68 503.52L845.54 504.79C845.14 508.557 844.847 515.26 844.66 524.9L852 515.62C853.935 513.088 856.076 510.72 858.4 508.54C860.298 506.855 862.501 505.548 864.89 504.69C867.328 503.784 869.909 503.32 872.51 503.32C875.306 503.308 878.071 503.908 880.61 505.08L881.3 506.45C880.26 515.117 879.673 522.733 879.54 529.3H875.14C872.54 523.3 868.343 520.3 862.55 520.3C858.676 520.242 854.918 521.621 852 524.17C849.043 526.691 846.946 530.071 846 533.84C844.888 538.658 844.381 543.596 844.49 548.54V559.38C844.49 561.333 844.62 566.117 844.88 573.73C845.14 581.343 845.417 585.737 845.71 586.91C845.849 587.861 846.297 588.741 846.986 589.411C847.675 590.082 848.565 590.507 849.52 590.62C850.527 590.82 855.167 591.153 863.44 591.62L864.32 592.4V596.5L863.44 597.38C854.773 596.86 845.723 596.6 836.29 596.6C828.797 596.6 820.983 596.86 812.85 597.38L811.97 596.5V592.4L812.85 591.62C819.16 591.23 822.73 590.94 823.54 590.74C824.359 590.547 825.105 590.124 825.69 589.52C826.39 588.727 826.833 587.74 826.96 586.69C827.193 585.423 827.453 581.223 827.74 574.09C828.027 566.957 828.173 561.57 828.18 557.93V538.67C828.18 536.07 828.05 532.523 827.79 528.03C827.53 523.537 827.32 520.77 827.16 519.73C827.103 519.255 826.937 518.799 826.673 518.4C826.409 518 826.055 517.668 825.64 517.43C824.8 516.94 823.1 516.7 820.57 516.7L812.36 516.6L811.48 515.82V511.62L812.26 510.84C824.68 509.34 835.153 506.9 843.68 503.52Z" fill="black"/>
<path d="M905.89 530.37L902.08 529.37L901.3 528.37V516.31C912.88 507.71 924.143 503.413 935.09 503.42C942.57 503.42 948.787 504.82 953.74 507.62C958.266 510 961.998 513.649 964.48 518.12C966.775 522.67 967.915 527.715 967.8 532.81L967.31 552.44V581.54C967.31 585.54 967.587 587.95 968.14 588.77C968.583 589.525 969.251 590.122 970.05 590.48C971.348 590.888 972.692 591.134 974.05 591.21L979.62 591.7L980.4 592.58V596.48L979.62 597.27C974.86 596.877 970.433 596.68 966.34 596.68C962.433 596.68 957.743 596.877 952.27 597.27L950.81 595.9L951.2 580.18L929.91 596.78C926.19 598.292 922.205 599.046 918.19 599C913.553 599.125 908.952 598.156 904.76 596.17C901.183 594.432 898.196 591.682 896.17 588.26C894.081 584.505 893.045 580.255 893.17 575.96C893.17 566.393 896.17 558.92 902.17 553.54C908.17 548.16 924.503 543.587 951.17 539.82C951.17 530.187 949.02 523.4 944.72 519.46C940.42 515.52 934.66 513.55 927.44 513.55C923.937 513.508 920.453 514.07 917.14 515.21C914.04 516.32 912.27 517.21 911.81 517.9C911.35 518.59 909.6 522.57 906.54 529.9L905.89 530.37ZM951.2 545.8C932.973 548.86 921.613 552.147 917.12 555.66C912.627 559.173 910.38 564.62 910.38 572C910.38 582.16 915.427 587.24 925.52 587.24C934.187 587.24 942.747 582.24 951.2 572.24V545.8Z" fill="black"/>
<path d="M1092.9 510.25L1093.68 512.01C1091.01 516.11 1089.35 518.777 1088.68 520.01H1070.53C1072.33 523.479 1073.27 527.331 1073.27 531.24C1073.26 535.917 1072.17 540.528 1070.1 544.72C1068.01 549.038 1064.99 552.839 1061.26 555.85C1057.4 558.958 1053.06 561.429 1048.42 563.17C1043.18 565.076 1037.64 566.005 1032.06 565.91H1027.57C1023.72 568.97 1021.25 571.247 1020.14 572.74C1019.1 574.05 1018.52 575.661 1018.48 577.33C1018.42 578.634 1018.77 579.924 1019.49 581.014C1020.21 582.103 1021.26 582.935 1022.48 583.39C1025.15 584.557 1030.6 585.144 1038.84 585.15L1060.71 584.85C1067.61 584.85 1072.9 585.664 1076.58 587.29C1080.46 589.112 1083.61 592.192 1085.52 596.03C1087.76 600.119 1088.94 604.707 1088.93 609.37C1088.93 616.53 1086.6 623.674 1081.93 630.8C1077.26 637.927 1070.54 643.347 1061.77 647.06C1052.86 650.795 1043.3 652.689 1033.64 652.63C1028.25 652.666 1022.88 652.041 1017.64 650.77C1012.99 649.672 1008.56 647.774 1004.56 645.16C1000.82 642.645 997.74 639.28 995.56 635.34C993.343 631.51 992.168 627.166 992.15 622.74C992.167 620.184 992.527 617.641 993.22 615.18C994.129 612.133 995.513 609.247 997.32 606.63L1015 596.78C1009.33 595.02 1005.77 593.277 1004.3 591.55C1002.84 589.821 1002.06 587.615 1002.11 585.35C1002.27 582.277 1003.1 579.276 1004.55 576.56L1020.27 565.23C1011.03 562.83 1004.8 559.217 1001.57 554.39C998.396 549.727 996.712 544.211 996.74 538.57C996.73 533.351 997.895 528.197 1000.15 523.49C1002.39 518.742 1005.96 514.75 1010.43 512C1015.24 509.04 1020.43 506.755 1025.86 505.21C1030.91 503.651 1036.15 502.813 1041.43 502.72C1049.57 502.72 1057.32 505.357 1064.68 510.63C1076.46 510.637 1085.87 510.51 1092.9 510.25ZM1042.12 598.44C1031.63 598.44 1025.59 598.57 1024 598.83C1022.41 599.09 1020.14 600.2 1017.21 602.15C1014.2 604.191 1011.74 606.937 1010.04 610.15C1008.15 613.607 1007.19 617.493 1007.25 621.43C1007.15 624.858 1007.84 628.263 1009.27 631.383C1010.69 634.504 1012.81 637.256 1015.46 639.43C1020.93 644.05 1028.22 646.36 1037.33 646.36C1043.9 646.424 1050.38 644.951 1056.28 642.06C1061.62 639.604 1066.1 635.588 1069.12 630.54C1071.7 626.363 1073.13 621.578 1073.27 616.67C1073.38 612.601 1072.16 608.606 1069.8 605.29C1067.68 602.256 1064.44 600.185 1060.8 599.53C1057.13 598.804 1050.91 598.44 1042.12 598.44ZM1013.5 532.91C1013.57 537.274 1014.36 541.597 1015.85 545.7C1017.14 549.901 1019.81 553.545 1023.42 556.05C1026.89 558.395 1030.99 559.624 1035.18 559.57C1040.72 559.67 1046.09 557.644 1050.18 553.91C1054.38 550.13 1056.48 544.237 1056.48 536.23C1056.54 529.695 1054.52 523.31 1050.71 518C1046.87 512.6 1041.43 509.897 1034.4 509.89C1031.66 509.817 1028.93 510.294 1026.37 511.291C1023.81 512.289 1021.48 513.788 1019.51 515.7C1015.51 519.56 1013.51 525.297 1013.5 532.91Z" fill="black"/>
<path d="M1182.74 582.23L1179.62 589.23C1172.85 593.59 1166.81 596.42 1161.5 597.72C1156.86 598.953 1152.09 599.624 1147.29 599.72C1139.65 599.755 1132.08 598.192 1125.08 595.13C1118.08 592.07 1112.38 586.893 1107.99 579.6C1103.6 572.307 1101.4 563.517 1101.39 553.23C1101.31 546.971 1102.17 540.736 1103.93 534.73C1105.63 529.23 1107.41 525.143 1109.26 522.47C1111.11 519.797 1114.25 516.833 1118.68 513.58C1123.01 510.38 1127.74 507.755 1132.74 505.77C1137.84 503.792 1143.27 502.797 1148.74 502.84C1156.01 502.693 1163.17 504.607 1169.39 508.36C1174.99 511.595 1179.41 516.536 1182 522.46C1184.42 528.242 1185.65 534.452 1185.61 540.72C1185.62 542.677 1185.52 544.633 1185.32 546.58L1184.25 547.66C1178.36 548.814 1172.38 549.483 1166.38 549.66C1158.89 549.987 1153.94 550.15 1151.53 550.15H1120.14C1120.27 563.623 1123.66 573.55 1130.3 579.93C1133.53 583.066 1137.35 585.527 1141.54 587.17C1145.73 588.813 1150.21 589.605 1154.71 589.5C1159.19 589.513 1163.65 588.721 1167.85 587.16C1172.48 585.388 1176.94 583.199 1181.18 580.62L1182.74 582.23ZM1120.14 542.29C1121.32 542.48 1125.82 542.71 1133.67 542.97C1141.52 543.23 1147.32 543.36 1151.1 543.36C1160.15 543.36 1165.65 543.197 1167.6 542.87C1167.67 541.31 1167.7 540.1 1167.7 539.26C1167.7 529.167 1165.65 521.663 1161.55 516.75C1157.45 511.837 1151.85 509.38 1144.75 509.38C1137.01 509.38 1130.97 512.147 1126.64 517.68C1122.31 523.213 1120.14 531.417 1120.14 542.29Z" fill="black"/>
<path d="M1217.21 575C1218.72 574.986 1220.22 575.272 1221.62 575.842C1223.02 576.411 1224.3 577.254 1225.37 578.32C1227.01 579.948 1228.13 582.025 1228.59 584.288C1229.05 586.552 1228.83 588.901 1227.96 591.04C1227.08 593.179 1225.6 595.012 1223.69 596.307C1221.77 597.603 1219.52 598.303 1217.21 598.32C1215.67 598.349 1214.14 598.065 1212.71 597.486C1211.29 596.907 1209.99 596.044 1208.91 594.95C1207.8 593.884 1206.93 592.601 1206.34 591.182C1205.76 589.762 1205.47 588.236 1205.5 586.7C1205.49 585.161 1205.79 583.637 1206.38 582.214C1206.97 580.792 1207.83 579.499 1208.92 578.412C1210.01 577.324 1211.3 576.463 1212.72 575.877C1214.15 575.291 1215.67 574.993 1217.21 575Z" fill="black"/>
<path d="M1241.34 511.62L1242.21 510.84C1254.58 509.34 1265.07 506.9 1273.66 503.52L1275.42 504.79C1274.7 513.31 1274.34 525.253 1274.34 540.62V558.62L1274.64 589.78C1274.71 599.758 1273.82 609.719 1272 619.53C1270.41 628.308 1266.3 636.434 1260.18 642.92C1254.06 649.4 1247 652.64 1239 652.64C1238.55 652.64 1237.86 652.64 1237 652.54L1236 647L1236.88 645.73C1238.32 645.86 1239.46 645.93 1240.3 645.93C1242.54 645.906 1244.73 645.281 1246.65 644.12C1248.94 642.712 1250.88 640.792 1252.31 638.51C1254.14 635.634 1255.4 632.433 1256.02 629.08C1256.81 625.34 1257.35 619.48 1257.64 611.5C1257.93 603.52 1258.08 598.187 1258.07 595.5V538.67C1258.07 536.07 1257.96 532.54 1257.73 528.08C1257.5 523.62 1257.29 520.83 1257.1 519.73C1257.04 519.237 1256.86 518.767 1256.58 518.358C1256.3 517.948 1255.93 517.613 1255.49 517.38C1253.91 516.816 1252.23 516.585 1250.56 516.7L1242.25 516.6L1241.38 515.82L1241.34 511.62ZM1265.85 459.86C1267.29 459.86 1268.72 460.145 1270.05 460.699C1271.38 461.252 1272.59 462.064 1273.6 463.086C1274.62 464.108 1275.42 465.321 1275.97 466.656C1276.51 467.99 1276.79 469.419 1276.78 470.86C1276.76 473.755 1275.61 476.527 1273.56 478.575C1271.52 480.623 1268.74 481.781 1265.85 481.8C1262.94 481.8 1260.15 480.649 1258.09 478.599C1256.03 476.549 1254.87 473.767 1254.85 470.86C1254.85 467.942 1256.01 465.145 1258.07 463.082C1260.13 461.019 1262.93 459.86 1265.85 459.86Z" fill="black"/>
<path d="M1298.85 567.87H1303.05L1303.93 568.75C1304.01 573.451 1304.35 578.145 1304.93 582.81C1306.93 585.87 1310.41 588.36 1315.38 590.28C1320.03 592.141 1324.99 593.117 1330 593.16C1336.9 593.16 1342.42 591.307 1346.55 587.6C1348.49 585.976 1350.06 583.945 1351.13 581.65C1352.2 579.355 1352.75 576.853 1352.75 574.32C1352.81 571.715 1352.02 569.161 1350.51 567.04C1348.73 564.779 1346.39 563.026 1343.72 561.96C1340.69 560.627 1335.27 559.05 1327.46 557.23C1320.75 555.663 1316.06 554.44 1313.4 553.56C1310.56 552.597 1307.94 551.089 1305.68 549.12C1303.22 547.048 1301.28 544.423 1300.02 541.46C1297.82 536.085 1297.45 530.132 1298.97 524.526C1300.5 518.921 1303.83 513.976 1308.46 510.46C1315.4 505.22 1324.04 502.6 1334.39 502.6C1339.2 502.655 1343.98 503.259 1348.65 504.4C1352.64 505.258 1356.56 506.418 1360.37 507.87L1361.25 509.24C1360.73 511.84 1360.4 518.677 1360.25 529.75L1359.37 530.62H1355.47L1354.59 529.75C1354.49 526.939 1354.13 524.143 1353.51 521.4C1352.79 519.42 1351.58 517.653 1350 516.26C1347.69 514.152 1344.97 512.553 1342 511.57C1338.49 510.293 1334.79 509.649 1331.06 509.67C1327.64 509.567 1324.24 510.166 1321.06 511.43C1318.42 512.549 1316.15 514.394 1314.52 516.75C1312.81 519.3 1311.94 522.321 1312.03 525.39C1311.99 527.693 1312.51 529.972 1313.54 532.03C1314.6 534.026 1316.21 535.672 1318.18 536.77C1320.22 537.952 1322.42 538.825 1324.72 539.36L1335.37 542.09C1344.46 544.303 1351 546.223 1355 547.85C1358.73 549.311 1361.92 551.884 1364.13 555.22C1366.37 558.814 1367.49 562.99 1367.35 567.22C1367.35 576.2 1363.64 583.913 1356.22 590.36C1348.8 596.807 1339.25 600.02 1327.57 600C1322.45 599.911 1317.34 599.453 1312.28 598.63C1307.04 597.892 1301.85 596.891 1296.71 595.63L1296.22 594.36L1297.22 587.81C1297.55 585.792 1297.75 583.754 1297.81 581.71C1297.88 579.657 1297.95 575.343 1298.01 568.77L1298.85 567.87Z" fill="black"/>
</svg>
